<mxfile host="app.diagrams.net" modified="2023-11-29T06:55:04.960Z" agent="Mozilla/5.0 (Windows NT 10.0; Win64; x64) AppleWebKit/537.36 (KHTML, like Gecko) Chrome/119.0.0.0 Safari/537.36 Edg/119.0.0.0" etag="dVji4rDEbWWjjpvFpD_M" version="22.1.4" type="device" pages="4">
  <diagram name="Page 1" id="_qEex8eXGNitPSX0Lalp">
    <mxGraphModel dx="2000" dy="772" grid="1" gridSize="10" guides="1" tooltips="1" connect="1" arrows="1" fold="1" page="1" pageScale="1" pageWidth="827" pageHeight="1169" math="0" shadow="0">
      <root>
        <mxCell id="0" />
        <mxCell id="1" parent="0" />
        <mxCell id="aQib7qT09wn_K_PFfhjn-2" style="edgeStyle=orthogonalEdgeStyle;rounded=0;orthogonalLoop=1;jettySize=auto;html=1;" parent="1" source="aQib7qT09wn_K_PFfhjn-1" edge="1">
          <mxGeometry relative="1" as="geometry">
            <mxPoint x="395" y="190" as="targetPoint" />
          </mxGeometry>
        </mxCell>
        <mxCell id="aQib7qT09wn_K_PFfhjn-1" value="Start" style="ellipse;whiteSpace=wrap;html=1;" parent="1" vertex="1">
          <mxGeometry x="330" y="50" width="130" height="80" as="geometry" />
        </mxCell>
        <mxCell id="aQib7qT09wn_K_PFfhjn-4" style="edgeStyle=orthogonalEdgeStyle;rounded=0;orthogonalLoop=1;jettySize=auto;html=1;" parent="1" source="aQib7qT09wn_K_PFfhjn-3" edge="1">
          <mxGeometry relative="1" as="geometry">
            <mxPoint x="395" y="320" as="targetPoint" />
          </mxGeometry>
        </mxCell>
        <mxCell id="aQib7qT09wn_K_PFfhjn-3" value="Nhap chuoi : character[100]" style="shape=parallelogram;perimeter=parallelogramPerimeter;whiteSpace=wrap;html=1;fixedSize=1;" parent="1" vertex="1">
          <mxGeometry x="296.25" y="190" width="197.5" height="60" as="geometry" />
        </mxCell>
        <mxCell id="aQib7qT09wn_K_PFfhjn-8" style="edgeStyle=orthogonalEdgeStyle;rounded=0;orthogonalLoop=1;jettySize=auto;html=1;" parent="1" source="aQib7qT09wn_K_PFfhjn-6" edge="1">
          <mxGeometry relative="1" as="geometry">
            <mxPoint x="395" y="450" as="targetPoint" />
          </mxGeometry>
        </mxCell>
        <mxCell id="aQib7qT09wn_K_PFfhjn-6" value="choice" style="shape=parallelogram;perimeter=parallelogramPerimeter;whiteSpace=wrap;html=1;fixedSize=1;" parent="1" vertex="1">
          <mxGeometry x="335" y="320" width="120" height="60" as="geometry" />
        </mxCell>
        <mxCell id="aQib7qT09wn_K_PFfhjn-9" style="edgeStyle=orthogonalEdgeStyle;rounded=0;orthogonalLoop=1;jettySize=auto;html=1;" parent="1" source="aQib7qT09wn_K_PFfhjn-7" edge="1">
          <mxGeometry relative="1" as="geometry">
            <mxPoint x="395" y="610" as="targetPoint" />
          </mxGeometry>
        </mxCell>
        <mxCell id="aQib7qT09wn_K_PFfhjn-10" value="False" style="edgeLabel;html=1;align=center;verticalAlign=middle;resizable=0;points=[];" parent="aQib7qT09wn_K_PFfhjn-9" vertex="1" connectable="0">
          <mxGeometry x="0.022" y="3" relative="1" as="geometry">
            <mxPoint as="offset" />
          </mxGeometry>
        </mxCell>
        <mxCell id="aQib7qT09wn_K_PFfhjn-11" style="edgeStyle=orthogonalEdgeStyle;rounded=0;orthogonalLoop=1;jettySize=auto;html=1;" parent="1" source="aQib7qT09wn_K_PFfhjn-7" edge="1">
          <mxGeometry relative="1" as="geometry">
            <mxPoint x="220" y="490" as="targetPoint" />
          </mxGeometry>
        </mxCell>
        <mxCell id="aQib7qT09wn_K_PFfhjn-12" value="True" style="edgeLabel;html=1;align=center;verticalAlign=middle;resizable=0;points=[];" parent="aQib7qT09wn_K_PFfhjn-11" vertex="1" connectable="0">
          <mxGeometry x="-0.0885" y="3" relative="1" as="geometry">
            <mxPoint x="1" as="offset" />
          </mxGeometry>
        </mxCell>
        <mxCell id="aQib7qT09wn_K_PFfhjn-7" value="choice==1" style="rhombus;whiteSpace=wrap;html=1;" parent="1" vertex="1">
          <mxGeometry x="332.5" y="450" width="125" height="80" as="geometry" />
        </mxCell>
        <mxCell id="aQib7qT09wn_K_PFfhjn-17" style="edgeStyle=orthogonalEdgeStyle;rounded=0;orthogonalLoop=1;jettySize=auto;html=1;" parent="1" source="aQib7qT09wn_K_PFfhjn-15" edge="1">
          <mxGeometry relative="1" as="geometry">
            <mxPoint x="230" y="650" as="targetPoint" />
          </mxGeometry>
        </mxCell>
        <mxCell id="aQib7qT09wn_K_PFfhjn-18" value="True" style="edgeLabel;html=1;align=center;verticalAlign=middle;resizable=0;points=[];" parent="aQib7qT09wn_K_PFfhjn-17" vertex="1" connectable="0">
          <mxGeometry x="0.0743" relative="1" as="geometry">
            <mxPoint as="offset" />
          </mxGeometry>
        </mxCell>
        <mxCell id="aQib7qT09wn_K_PFfhjn-20" style="edgeStyle=orthogonalEdgeStyle;rounded=0;orthogonalLoop=1;jettySize=auto;html=1;" parent="1" source="aQib7qT09wn_K_PFfhjn-15" edge="1">
          <mxGeometry relative="1" as="geometry">
            <mxPoint x="397.5" y="770" as="targetPoint" />
          </mxGeometry>
        </mxCell>
        <mxCell id="aQib7qT09wn_K_PFfhjn-21" value="False" style="edgeLabel;html=1;align=center;verticalAlign=middle;resizable=0;points=[];" parent="aQib7qT09wn_K_PFfhjn-20" vertex="1" connectable="0">
          <mxGeometry x="0.0803" y="1" relative="1" as="geometry">
            <mxPoint as="offset" />
          </mxGeometry>
        </mxCell>
        <mxCell id="aQib7qT09wn_K_PFfhjn-15" value="choice==2" style="rhombus;whiteSpace=wrap;html=1;" parent="1" vertex="1">
          <mxGeometry x="335" y="610" width="125" height="80" as="geometry" />
        </mxCell>
        <mxCell id="aQib7qT09wn_K_PFfhjn-23" style="edgeStyle=orthogonalEdgeStyle;rounded=0;orthogonalLoop=1;jettySize=auto;html=1;" parent="1" source="aQib7qT09wn_K_PFfhjn-22" edge="1">
          <mxGeometry relative="1" as="geometry">
            <mxPoint x="230" y="810" as="targetPoint" />
          </mxGeometry>
        </mxCell>
        <mxCell id="aQib7qT09wn_K_PFfhjn-24" value="True" style="edgeLabel;html=1;align=center;verticalAlign=middle;resizable=0;points=[];" parent="aQib7qT09wn_K_PFfhjn-23" vertex="1" connectable="0">
          <mxGeometry x="0.0987" y="3" relative="1" as="geometry">
            <mxPoint as="offset" />
          </mxGeometry>
        </mxCell>
        <mxCell id="aQib7qT09wn_K_PFfhjn-25" style="edgeStyle=orthogonalEdgeStyle;rounded=0;orthogonalLoop=1;jettySize=auto;html=1;" parent="1" source="aQib7qT09wn_K_PFfhjn-22" edge="1">
          <mxGeometry relative="1" as="geometry">
            <mxPoint x="397.5" y="940" as="targetPoint" />
          </mxGeometry>
        </mxCell>
        <mxCell id="aQib7qT09wn_K_PFfhjn-26" value="False" style="edgeLabel;html=1;align=center;verticalAlign=middle;resizable=0;points=[];" parent="aQib7qT09wn_K_PFfhjn-25" vertex="1" connectable="0">
          <mxGeometry x="-0.0056" y="-3" relative="1" as="geometry">
            <mxPoint x="-3" y="-2" as="offset" />
          </mxGeometry>
        </mxCell>
        <mxCell id="aQib7qT09wn_K_PFfhjn-22" value="choice==3" style="rhombus;whiteSpace=wrap;html=1;" parent="1" vertex="1">
          <mxGeometry x="322.5" y="770" width="150" height="80" as="geometry" />
        </mxCell>
        <mxCell id="aQib7qT09wn_K_PFfhjn-29" style="edgeStyle=orthogonalEdgeStyle;rounded=0;orthogonalLoop=1;jettySize=auto;html=1;" parent="1" source="aQib7qT09wn_K_PFfhjn-28" edge="1">
          <mxGeometry relative="1" as="geometry">
            <mxPoint x="-20" y="810" as="targetPoint" />
          </mxGeometry>
        </mxCell>
        <mxCell id="aQib7qT09wn_K_PFfhjn-28" value="khai bao ham&amp;nbsp;reverseString" style="shape=parallelogram;perimeter=parallelogramPerimeter;whiteSpace=wrap;html=1;fixedSize=1;" parent="1" vertex="1">
          <mxGeometry x="40" y="780" width="200" height="60" as="geometry" />
        </mxCell>
        <mxCell id="aQib7qT09wn_K_PFfhjn-45" style="edgeStyle=orthogonalEdgeStyle;rounded=0;orthogonalLoop=1;jettySize=auto;html=1;" parent="1" source="aQib7qT09wn_K_PFfhjn-30" target="aQib7qT09wn_K_PFfhjn-46" edge="1">
          <mxGeometry relative="1" as="geometry">
            <mxPoint x="-210" y="810" as="targetPoint" />
          </mxGeometry>
        </mxCell>
        <mxCell id="aQib7qT09wn_K_PFfhjn-30" value="Thực hiện đổi chỗ các vị trị đầu cuối cho nhau" style="rounded=0;whiteSpace=wrap;html=1;" parent="1" vertex="1">
          <mxGeometry x="-160" y="780" width="140" height="60" as="geometry" />
        </mxCell>
        <mxCell id="aQib7qT09wn_K_PFfhjn-32" style="edgeStyle=orthogonalEdgeStyle;rounded=0;orthogonalLoop=1;jettySize=auto;html=1;" parent="1" source="aQib7qT09wn_K_PFfhjn-31" target="aQib7qT09wn_K_PFfhjn-33" edge="1">
          <mxGeometry relative="1" as="geometry">
            <mxPoint x="10" y="490" as="targetPoint" />
          </mxGeometry>
        </mxCell>
        <mxCell id="aQib7qT09wn_K_PFfhjn-31" value="Nhap cac ki tu cho day" style="rounded=0;whiteSpace=wrap;html=1;" parent="1" vertex="1">
          <mxGeometry x="70" y="460" width="150" height="60" as="geometry" />
        </mxCell>
        <mxCell id="aQib7qT09wn_K_PFfhjn-79" style="edgeStyle=orthogonalEdgeStyle;rounded=0;orthogonalLoop=1;jettySize=auto;html=1;entryX=0;entryY=0.5;entryDx=0;entryDy=0;" parent="1" source="aQib7qT09wn_K_PFfhjn-33" target="aQib7qT09wn_K_PFfhjn-78" edge="1">
          <mxGeometry relative="1" as="geometry">
            <mxPoint x="-510" y="1760" as="targetPoint" />
            <Array as="points">
              <mxPoint x="-510" y="490" />
              <mxPoint x="-510" y="1760" />
            </Array>
          </mxGeometry>
        </mxCell>
        <mxCell id="aQib7qT09wn_K_PFfhjn-33" value="In chuoi" style="shape=parallelogram;perimeter=parallelogramPerimeter;whiteSpace=wrap;html=1;fixedSize=1;" parent="1" vertex="1">
          <mxGeometry x="-100" y="460" width="120" height="60" as="geometry" />
        </mxCell>
        <mxCell id="aQib7qT09wn_K_PFfhjn-80" style="edgeStyle=orthogonalEdgeStyle;rounded=0;orthogonalLoop=1;jettySize=auto;html=1;" parent="1" source="aQib7qT09wn_K_PFfhjn-35" edge="1">
          <mxGeometry relative="1" as="geometry">
            <mxPoint x="-510" y="650" as="targetPoint" />
          </mxGeometry>
        </mxCell>
        <mxCell id="aQib7qT09wn_K_PFfhjn-35" value="in ra do dai chuỗi&lt;br&gt;in ra nội dung chuỗi" style="shape=parallelogram;perimeter=parallelogramPerimeter;whiteSpace=wrap;html=1;fixedSize=1;" parent="1" vertex="1">
          <mxGeometry x="20" y="620" width="220" height="60" as="geometry" />
        </mxCell>
        <mxCell id="aQib7qT09wn_K_PFfhjn-38" style="edgeStyle=orthogonalEdgeStyle;rounded=0;orthogonalLoop=1;jettySize=auto;html=1;" parent="1" source="aQib7qT09wn_K_PFfhjn-36" edge="1">
          <mxGeometry relative="1" as="geometry">
            <mxPoint x="250" y="980" as="targetPoint" />
          </mxGeometry>
        </mxCell>
        <mxCell id="aQib7qT09wn_K_PFfhjn-39" value="True" style="edgeLabel;html=1;align=center;verticalAlign=middle;resizable=0;points=[];" parent="aQib7qT09wn_K_PFfhjn-38" vertex="1" connectable="0">
          <mxGeometry x="-0.0069" y="2" relative="1" as="geometry">
            <mxPoint x="2" as="offset" />
          </mxGeometry>
        </mxCell>
        <mxCell id="aQib7qT09wn_K_PFfhjn-40" style="edgeStyle=orthogonalEdgeStyle;rounded=0;orthogonalLoop=1;jettySize=auto;html=1;" parent="1" source="aQib7qT09wn_K_PFfhjn-36" edge="1">
          <mxGeometry relative="1" as="geometry">
            <mxPoint x="400" y="1110" as="targetPoint" />
          </mxGeometry>
        </mxCell>
        <mxCell id="aQib7qT09wn_K_PFfhjn-41" value="False" style="edgeLabel;html=1;align=center;verticalAlign=middle;resizable=0;points=[];" parent="aQib7qT09wn_K_PFfhjn-40" vertex="1" connectable="0">
          <mxGeometry x="-0.001" relative="1" as="geometry">
            <mxPoint as="offset" />
          </mxGeometry>
        </mxCell>
        <mxCell id="aQib7qT09wn_K_PFfhjn-36" value="choice==4" style="rhombus;whiteSpace=wrap;html=1;" parent="1" vertex="1">
          <mxGeometry x="337.5" y="940" width="122.5" height="80" as="geometry" />
        </mxCell>
        <mxCell id="aQib7qT09wn_K_PFfhjn-47" style="edgeStyle=orthogonalEdgeStyle;rounded=0;orthogonalLoop=1;jettySize=auto;html=1;" parent="1" source="aQib7qT09wn_K_PFfhjn-42" target="aQib7qT09wn_K_PFfhjn-48" edge="1">
          <mxGeometry relative="1" as="geometry">
            <mxPoint x="-250" y="980" as="targetPoint" />
          </mxGeometry>
        </mxCell>
        <mxCell id="aQib7qT09wn_K_PFfhjn-42" value="Thực hiện đếm các phần tử là chữ cai" style="rounded=0;whiteSpace=wrap;html=1;" parent="1" vertex="1">
          <mxGeometry x="-200" y="950" width="170" height="60" as="geometry" />
        </mxCell>
        <mxCell id="aQib7qT09wn_K_PFfhjn-44" style="edgeStyle=orthogonalEdgeStyle;rounded=0;orthogonalLoop=1;jettySize=auto;html=1;" parent="1" source="aQib7qT09wn_K_PFfhjn-43" edge="1">
          <mxGeometry relative="1" as="geometry">
            <mxPoint x="-30" y="980" as="targetPoint" />
          </mxGeometry>
        </mxCell>
        <mxCell id="aQib7qT09wn_K_PFfhjn-43" value="khai bao&amp;nbsp;countLetters" style="shape=parallelogram;perimeter=parallelogramPerimeter;whiteSpace=wrap;html=1;fixedSize=1;" parent="1" vertex="1">
          <mxGeometry x="20" y="950" width="240" height="60" as="geometry" />
        </mxCell>
        <mxCell id="aQib7qT09wn_K_PFfhjn-81" style="edgeStyle=orthogonalEdgeStyle;rounded=0;orthogonalLoop=1;jettySize=auto;html=1;" parent="1" source="aQib7qT09wn_K_PFfhjn-46" edge="1">
          <mxGeometry relative="1" as="geometry">
            <mxPoint x="-510" y="810" as="targetPoint" />
          </mxGeometry>
        </mxCell>
        <mxCell id="aQib7qT09wn_K_PFfhjn-46" value="In ra chuỗi sau khi đảo ngược" style="shape=parallelogram;perimeter=parallelogramPerimeter;whiteSpace=wrap;html=1;fixedSize=1;" parent="1" vertex="1">
          <mxGeometry x="-390" y="780" width="200" height="60" as="geometry" />
        </mxCell>
        <mxCell id="aQib7qT09wn_K_PFfhjn-82" style="edgeStyle=orthogonalEdgeStyle;rounded=0;orthogonalLoop=1;jettySize=auto;html=1;" parent="1" source="aQib7qT09wn_K_PFfhjn-48" edge="1">
          <mxGeometry relative="1" as="geometry">
            <mxPoint x="-510" y="980" as="targetPoint" />
          </mxGeometry>
        </mxCell>
        <mxCell id="aQib7qT09wn_K_PFfhjn-48" value="In ra số chữ cái" style="shape=parallelogram;perimeter=parallelogramPerimeter;whiteSpace=wrap;html=1;fixedSize=1;" parent="1" vertex="1">
          <mxGeometry x="-420" y="950" width="190" height="60" as="geometry" />
        </mxCell>
        <mxCell id="aQib7qT09wn_K_PFfhjn-50" style="edgeStyle=orthogonalEdgeStyle;rounded=0;orthogonalLoop=1;jettySize=auto;html=1;" parent="1" source="aQib7qT09wn_K_PFfhjn-49" edge="1">
          <mxGeometry relative="1" as="geometry">
            <mxPoint x="398.7550000000001" y="1280" as="targetPoint" />
          </mxGeometry>
        </mxCell>
        <mxCell id="aQib7qT09wn_K_PFfhjn-51" value="False" style="edgeLabel;html=1;align=center;verticalAlign=middle;resizable=0;points=[];" parent="aQib7qT09wn_K_PFfhjn-50" vertex="1" connectable="0">
          <mxGeometry x="0.0738" y="-2" relative="1" as="geometry">
            <mxPoint as="offset" />
          </mxGeometry>
        </mxCell>
        <mxCell id="aQib7qT09wn_K_PFfhjn-52" style="edgeStyle=orthogonalEdgeStyle;rounded=0;orthogonalLoop=1;jettySize=auto;html=1;" parent="1" source="aQib7qT09wn_K_PFfhjn-49" edge="1">
          <mxGeometry relative="1" as="geometry">
            <mxPoint x="260" y="1155" as="targetPoint" />
          </mxGeometry>
        </mxCell>
        <mxCell id="aQib7qT09wn_K_PFfhjn-53" value="True" style="edgeLabel;html=1;align=center;verticalAlign=middle;resizable=0;points=[];" parent="aQib7qT09wn_K_PFfhjn-52" vertex="1" connectable="0">
          <mxGeometry x="-0.02" y="-1" relative="1" as="geometry">
            <mxPoint y="-1" as="offset" />
          </mxGeometry>
        </mxCell>
        <mxCell id="aQib7qT09wn_K_PFfhjn-49" value="choice==5" style="rhombus;whiteSpace=wrap;html=1;" parent="1" vertex="1">
          <mxGeometry x="338.13" y="1110" width="121.25" height="90" as="geometry" />
        </mxCell>
        <mxCell id="aQib7qT09wn_K_PFfhjn-58" style="edgeStyle=orthogonalEdgeStyle;rounded=0;orthogonalLoop=1;jettySize=auto;html=1;" parent="1" source="aQib7qT09wn_K_PFfhjn-54" edge="1">
          <mxGeometry relative="1" as="geometry">
            <mxPoint x="-10" y="1155" as="targetPoint" />
          </mxGeometry>
        </mxCell>
        <mxCell id="aQib7qT09wn_K_PFfhjn-54" value="Khai bao&amp;nbsp;countDigits" style="shape=parallelogram;perimeter=parallelogramPerimeter;whiteSpace=wrap;html=1;fixedSize=1;" parent="1" vertex="1">
          <mxGeometry x="40" y="1125" width="230" height="60" as="geometry" />
        </mxCell>
        <mxCell id="aQib7qT09wn_K_PFfhjn-83" style="edgeStyle=orthogonalEdgeStyle;rounded=0;orthogonalLoop=1;jettySize=auto;html=1;" parent="1" source="aQib7qT09wn_K_PFfhjn-56" edge="1">
          <mxGeometry relative="1" as="geometry">
            <mxPoint x="-510" y="1155" as="targetPoint" />
          </mxGeometry>
        </mxCell>
        <mxCell id="aQib7qT09wn_K_PFfhjn-56" value="In ra số chữ số" style="shape=parallelogram;perimeter=parallelogramPerimeter;whiteSpace=wrap;html=1;fixedSize=1;" parent="1" vertex="1">
          <mxGeometry x="-450" y="1125" width="185" height="60" as="geometry" />
        </mxCell>
        <mxCell id="aQib7qT09wn_K_PFfhjn-59" style="edgeStyle=orthogonalEdgeStyle;rounded=0;orthogonalLoop=1;jettySize=auto;html=1;" parent="1" source="aQib7qT09wn_K_PFfhjn-57" edge="1">
          <mxGeometry relative="1" as="geometry">
            <mxPoint x="-270" y="1150" as="targetPoint" />
          </mxGeometry>
        </mxCell>
        <mxCell id="aQib7qT09wn_K_PFfhjn-57" value="Thực hiện đếm các phần tử là chữ số" style="rounded=0;whiteSpace=wrap;html=1;" parent="1" vertex="1">
          <mxGeometry x="-220" y="1120" width="210" height="60" as="geometry" />
        </mxCell>
        <mxCell id="aQib7qT09wn_K_PFfhjn-61" style="edgeStyle=orthogonalEdgeStyle;rounded=0;orthogonalLoop=1;jettySize=auto;html=1;" parent="1" source="aQib7qT09wn_K_PFfhjn-60" edge="1">
          <mxGeometry relative="1" as="geometry">
            <mxPoint x="398.75" y="1450" as="targetPoint" />
          </mxGeometry>
        </mxCell>
        <mxCell id="aQib7qT09wn_K_PFfhjn-62" value="False" style="edgeLabel;html=1;align=center;verticalAlign=middle;resizable=0;points=[];" parent="aQib7qT09wn_K_PFfhjn-61" vertex="1" connectable="0">
          <mxGeometry x="0.0866" y="2" relative="1" as="geometry">
            <mxPoint as="offset" />
          </mxGeometry>
        </mxCell>
        <mxCell id="aQib7qT09wn_K_PFfhjn-63" style="edgeStyle=orthogonalEdgeStyle;rounded=0;orthogonalLoop=1;jettySize=auto;html=1;" parent="1" source="aQib7qT09wn_K_PFfhjn-60" edge="1">
          <mxGeometry relative="1" as="geometry">
            <mxPoint x="260" y="1320" as="targetPoint" />
          </mxGeometry>
        </mxCell>
        <mxCell id="aQib7qT09wn_K_PFfhjn-64" value="True" style="edgeLabel;html=1;align=center;verticalAlign=middle;resizable=0;points=[];" parent="aQib7qT09wn_K_PFfhjn-63" vertex="1" connectable="0">
          <mxGeometry x="-0.0556" y="-1" relative="1" as="geometry">
            <mxPoint x="1" as="offset" />
          </mxGeometry>
        </mxCell>
        <mxCell id="aQib7qT09wn_K_PFfhjn-60" value="choice==6" style="rhombus;whiteSpace=wrap;html=1;" parent="1" vertex="1">
          <mxGeometry x="337.5" y="1280" width="122.5" height="80" as="geometry" />
        </mxCell>
        <mxCell id="aQib7qT09wn_K_PFfhjn-66" style="edgeStyle=orthogonalEdgeStyle;rounded=0;orthogonalLoop=1;jettySize=auto;html=1;" parent="1" source="aQib7qT09wn_K_PFfhjn-65" target="aQib7qT09wn_K_PFfhjn-67" edge="1">
          <mxGeometry relative="1" as="geometry">
            <mxPoint x="-20" y="1320" as="targetPoint" />
          </mxGeometry>
        </mxCell>
        <mxCell id="aQib7qT09wn_K_PFfhjn-65" value="Khai bao&amp;nbsp;countSpecialChars" style="shape=parallelogram;perimeter=parallelogramPerimeter;whiteSpace=wrap;html=1;fixedSize=1;" parent="1" vertex="1">
          <mxGeometry x="40" y="1290" width="230" height="60" as="geometry" />
        </mxCell>
        <mxCell id="aQib7qT09wn_K_PFfhjn-68" style="edgeStyle=orthogonalEdgeStyle;rounded=0;orthogonalLoop=1;jettySize=auto;html=1;" parent="1" source="aQib7qT09wn_K_PFfhjn-67" target="aQib7qT09wn_K_PFfhjn-69" edge="1">
          <mxGeometry relative="1" as="geometry">
            <mxPoint x="-260" y="1320" as="targetPoint" />
          </mxGeometry>
        </mxCell>
        <mxCell id="aQib7qT09wn_K_PFfhjn-67" value="Thực hiện đếm các phần tử là kí tự đắc biệt&amp;nbsp;" style="rounded=0;whiteSpace=wrap;html=1;" parent="1" vertex="1">
          <mxGeometry x="-220" y="1290" width="210" height="60" as="geometry" />
        </mxCell>
        <mxCell id="aQib7qT09wn_K_PFfhjn-84" style="edgeStyle=orthogonalEdgeStyle;rounded=0;orthogonalLoop=1;jettySize=auto;html=1;" parent="1" source="aQib7qT09wn_K_PFfhjn-69" edge="1">
          <mxGeometry relative="1" as="geometry">
            <mxPoint x="-510" y="1320" as="targetPoint" />
          </mxGeometry>
        </mxCell>
        <mxCell id="aQib7qT09wn_K_PFfhjn-69" value="In ra số kí tự đặc biệt" style="shape=parallelogram;perimeter=parallelogramPerimeter;whiteSpace=wrap;html=1;fixedSize=1;" parent="1" vertex="1">
          <mxGeometry x="-440" y="1290" width="175" height="60" as="geometry" />
        </mxCell>
        <mxCell id="aQib7qT09wn_K_PFfhjn-71" style="edgeStyle=orthogonalEdgeStyle;rounded=0;orthogonalLoop=1;jettySize=auto;html=1;" parent="1" source="aQib7qT09wn_K_PFfhjn-70" edge="1">
          <mxGeometry relative="1" as="geometry">
            <mxPoint x="401.25" y="1610" as="targetPoint" />
          </mxGeometry>
        </mxCell>
        <mxCell id="aQib7qT09wn_K_PFfhjn-72" value="False" style="edgeLabel;html=1;align=center;verticalAlign=middle;resizable=0;points=[];" parent="aQib7qT09wn_K_PFfhjn-71" vertex="1" connectable="0">
          <mxGeometry x="-0.1548" relative="1" as="geometry">
            <mxPoint as="offset" />
          </mxGeometry>
        </mxCell>
        <mxCell id="aQib7qT09wn_K_PFfhjn-73" style="edgeStyle=orthogonalEdgeStyle;rounded=0;orthogonalLoop=1;jettySize=auto;html=1;" parent="1" source="aQib7qT09wn_K_PFfhjn-70" edge="1">
          <mxGeometry relative="1" as="geometry">
            <mxPoint x="280" y="1490" as="targetPoint" />
          </mxGeometry>
        </mxCell>
        <mxCell id="aQib7qT09wn_K_PFfhjn-74" value="True" style="edgeLabel;html=1;align=center;verticalAlign=middle;resizable=0;points=[];" parent="aQib7qT09wn_K_PFfhjn-73" vertex="1" connectable="0">
          <mxGeometry x="-0.1044" y="4" relative="1" as="geometry">
            <mxPoint as="offset" />
          </mxGeometry>
        </mxCell>
        <mxCell id="aQib7qT09wn_K_PFfhjn-70" value="choice==7" style="rhombus;whiteSpace=wrap;html=1;" parent="1" vertex="1">
          <mxGeometry x="345" y="1450" width="112.5" height="80" as="geometry" />
        </mxCell>
        <mxCell id="aQib7qT09wn_K_PFfhjn-75" value="Kết thúc chương trình&lt;br&gt;Exit(0)" style="shape=parallelogram;perimeter=parallelogramPerimeter;whiteSpace=wrap;html=1;fixedSize=1;" parent="1" vertex="1">
          <mxGeometry x="120" y="1460" width="170" height="60" as="geometry" />
        </mxCell>
        <mxCell id="aQib7qT09wn_K_PFfhjn-77" style="edgeStyle=orthogonalEdgeStyle;rounded=0;orthogonalLoop=1;jettySize=auto;html=1;" parent="1" source="aQib7qT09wn_K_PFfhjn-76" target="aQib7qT09wn_K_PFfhjn-78" edge="1">
          <mxGeometry relative="1" as="geometry">
            <mxPoint x="404.375" y="1740" as="targetPoint" />
          </mxGeometry>
        </mxCell>
        <mxCell id="aQib7qT09wn_K_PFfhjn-76" value="Khong hop le" style="shape=parallelogram;perimeter=parallelogramPerimeter;whiteSpace=wrap;html=1;fixedSize=1;" parent="1" vertex="1">
          <mxGeometry x="315" y="1610" width="178.75" height="60" as="geometry" />
        </mxCell>
        <mxCell id="aQib7qT09wn_K_PFfhjn-78" value="End" style="ellipse;whiteSpace=wrap;html=1;" parent="1" vertex="1">
          <mxGeometry x="344.375" y="1720" width="120" height="80" as="geometry" />
        </mxCell>
      </root>
    </mxGraphModel>
  </diagram>
  <diagram id="5aqxECXHm2YyVnUUY9Nk" name="Page-2">
    <mxGraphModel dx="2805" dy="1287" grid="1" gridSize="10" guides="1" tooltips="1" connect="1" arrows="1" fold="1" page="1" pageScale="1" pageWidth="850" pageHeight="1100" math="0" shadow="0">
      <root>
        <mxCell id="0" />
        <mxCell id="1" parent="0" />
        <mxCell id="Lr293_eHCsVt5JCDT1sO-1" style="edgeStyle=orthogonalEdgeStyle;rounded=0;orthogonalLoop=1;jettySize=auto;html=1;" edge="1" parent="1" source="Lr293_eHCsVt5JCDT1sO-2">
          <mxGeometry relative="1" as="geometry">
            <mxPoint x="395" y="190" as="targetPoint" />
          </mxGeometry>
        </mxCell>
        <mxCell id="Lr293_eHCsVt5JCDT1sO-2" value="Start" style="ellipse;whiteSpace=wrap;html=1;" vertex="1" parent="1">
          <mxGeometry x="330" y="50" width="130" height="80" as="geometry" />
        </mxCell>
        <mxCell id="Lr293_eHCsVt5JCDT1sO-3" style="edgeStyle=orthogonalEdgeStyle;rounded=0;orthogonalLoop=1;jettySize=auto;html=1;" edge="1" parent="1" source="Lr293_eHCsVt5JCDT1sO-4">
          <mxGeometry relative="1" as="geometry">
            <mxPoint x="395" y="320" as="targetPoint" />
          </mxGeometry>
        </mxCell>
        <mxCell id="Lr293_eHCsVt5JCDT1sO-4" value="Nhap chuoi : character[100]" style="shape=parallelogram;perimeter=parallelogramPerimeter;whiteSpace=wrap;html=1;fixedSize=1;" vertex="1" parent="1">
          <mxGeometry x="296.25" y="190" width="197.5" height="60" as="geometry" />
        </mxCell>
        <mxCell id="Lr293_eHCsVt5JCDT1sO-5" style="edgeStyle=orthogonalEdgeStyle;rounded=0;orthogonalLoop=1;jettySize=auto;html=1;" edge="1" parent="1" source="Lr293_eHCsVt5JCDT1sO-6">
          <mxGeometry relative="1" as="geometry">
            <mxPoint x="395" y="450" as="targetPoint" />
          </mxGeometry>
        </mxCell>
        <mxCell id="Lr293_eHCsVt5JCDT1sO-6" value="choice" style="shape=parallelogram;perimeter=parallelogramPerimeter;whiteSpace=wrap;html=1;fixedSize=1;" vertex="1" parent="1">
          <mxGeometry x="335" y="320" width="120" height="60" as="geometry" />
        </mxCell>
        <mxCell id="Lr293_eHCsVt5JCDT1sO-7" style="edgeStyle=orthogonalEdgeStyle;rounded=0;orthogonalLoop=1;jettySize=auto;html=1;" edge="1" parent="1" source="Lr293_eHCsVt5JCDT1sO-11">
          <mxGeometry relative="1" as="geometry">
            <mxPoint x="395" y="610" as="targetPoint" />
          </mxGeometry>
        </mxCell>
        <mxCell id="Lr293_eHCsVt5JCDT1sO-8" value="False" style="edgeLabel;html=1;align=center;verticalAlign=middle;resizable=0;points=[];" vertex="1" connectable="0" parent="Lr293_eHCsVt5JCDT1sO-7">
          <mxGeometry x="0.022" y="3" relative="1" as="geometry">
            <mxPoint as="offset" />
          </mxGeometry>
        </mxCell>
        <mxCell id="Lr293_eHCsVt5JCDT1sO-9" style="edgeStyle=orthogonalEdgeStyle;rounded=0;orthogonalLoop=1;jettySize=auto;html=1;" edge="1" parent="1" source="Lr293_eHCsVt5JCDT1sO-11">
          <mxGeometry relative="1" as="geometry">
            <mxPoint x="220" y="490" as="targetPoint" />
          </mxGeometry>
        </mxCell>
        <mxCell id="Lr293_eHCsVt5JCDT1sO-10" value="True" style="edgeLabel;html=1;align=center;verticalAlign=middle;resizable=0;points=[];" vertex="1" connectable="0" parent="Lr293_eHCsVt5JCDT1sO-9">
          <mxGeometry x="-0.0885" y="3" relative="1" as="geometry">
            <mxPoint x="1" as="offset" />
          </mxGeometry>
        </mxCell>
        <mxCell id="Lr293_eHCsVt5JCDT1sO-11" value="choice==1" style="rhombus;whiteSpace=wrap;html=1;" vertex="1" parent="1">
          <mxGeometry x="332.5" y="450" width="125" height="80" as="geometry" />
        </mxCell>
        <mxCell id="Lr293_eHCsVt5JCDT1sO-12" style="edgeStyle=orthogonalEdgeStyle;rounded=0;orthogonalLoop=1;jettySize=auto;html=1;" edge="1" parent="1" source="Lr293_eHCsVt5JCDT1sO-16">
          <mxGeometry relative="1" as="geometry">
            <mxPoint x="230" y="650" as="targetPoint" />
          </mxGeometry>
        </mxCell>
        <mxCell id="Lr293_eHCsVt5JCDT1sO-13" value="True" style="edgeLabel;html=1;align=center;verticalAlign=middle;resizable=0;points=[];" vertex="1" connectable="0" parent="Lr293_eHCsVt5JCDT1sO-12">
          <mxGeometry x="0.0743" relative="1" as="geometry">
            <mxPoint as="offset" />
          </mxGeometry>
        </mxCell>
        <mxCell id="Lr293_eHCsVt5JCDT1sO-14" style="edgeStyle=orthogonalEdgeStyle;rounded=0;orthogonalLoop=1;jettySize=auto;html=1;" edge="1" parent="1" source="Lr293_eHCsVt5JCDT1sO-16">
          <mxGeometry relative="1" as="geometry">
            <mxPoint x="397.5" y="770" as="targetPoint" />
          </mxGeometry>
        </mxCell>
        <mxCell id="Lr293_eHCsVt5JCDT1sO-15" value="False" style="edgeLabel;html=1;align=center;verticalAlign=middle;resizable=0;points=[];" vertex="1" connectable="0" parent="Lr293_eHCsVt5JCDT1sO-14">
          <mxGeometry x="0.0803" y="1" relative="1" as="geometry">
            <mxPoint as="offset" />
          </mxGeometry>
        </mxCell>
        <mxCell id="Lr293_eHCsVt5JCDT1sO-16" value="choice==2" style="rhombus;whiteSpace=wrap;html=1;" vertex="1" parent="1">
          <mxGeometry x="335" y="610" width="125" height="80" as="geometry" />
        </mxCell>
        <mxCell id="Lr293_eHCsVt5JCDT1sO-17" style="edgeStyle=orthogonalEdgeStyle;rounded=0;orthogonalLoop=1;jettySize=auto;html=1;" edge="1" parent="1" source="Lr293_eHCsVt5JCDT1sO-21">
          <mxGeometry relative="1" as="geometry">
            <mxPoint x="230" y="810" as="targetPoint" />
          </mxGeometry>
        </mxCell>
        <mxCell id="Lr293_eHCsVt5JCDT1sO-18" value="True" style="edgeLabel;html=1;align=center;verticalAlign=middle;resizable=0;points=[];" vertex="1" connectable="0" parent="Lr293_eHCsVt5JCDT1sO-17">
          <mxGeometry x="0.0987" y="3" relative="1" as="geometry">
            <mxPoint as="offset" />
          </mxGeometry>
        </mxCell>
        <mxCell id="Lr293_eHCsVt5JCDT1sO-19" style="edgeStyle=orthogonalEdgeStyle;rounded=0;orthogonalLoop=1;jettySize=auto;html=1;" edge="1" parent="1" source="Lr293_eHCsVt5JCDT1sO-21">
          <mxGeometry relative="1" as="geometry">
            <mxPoint x="397.5" y="940" as="targetPoint" />
          </mxGeometry>
        </mxCell>
        <mxCell id="Lr293_eHCsVt5JCDT1sO-20" value="False" style="edgeLabel;html=1;align=center;verticalAlign=middle;resizable=0;points=[];" vertex="1" connectable="0" parent="Lr293_eHCsVt5JCDT1sO-19">
          <mxGeometry x="-0.0056" y="-3" relative="1" as="geometry">
            <mxPoint x="-3" y="-2" as="offset" />
          </mxGeometry>
        </mxCell>
        <mxCell id="Lr293_eHCsVt5JCDT1sO-21" value="choice==3" style="rhombus;whiteSpace=wrap;html=1;" vertex="1" parent="1">
          <mxGeometry x="322.5" y="770" width="150" height="80" as="geometry" />
        </mxCell>
        <mxCell id="Lr293_eHCsVt5JCDT1sO-22" style="edgeStyle=orthogonalEdgeStyle;rounded=0;orthogonalLoop=1;jettySize=auto;html=1;" edge="1" parent="1" source="Lr293_eHCsVt5JCDT1sO-23">
          <mxGeometry relative="1" as="geometry">
            <mxPoint x="-20" y="810" as="targetPoint" />
          </mxGeometry>
        </mxCell>
        <mxCell id="Lr293_eHCsVt5JCDT1sO-23" value="khai bao ham&amp;nbsp;countCharacter(char* str, char x)" style="shape=parallelogram;perimeter=parallelogramPerimeter;whiteSpace=wrap;html=1;fixedSize=1;" vertex="1" parent="1">
          <mxGeometry x="20" y="780" width="220" height="60" as="geometry" />
        </mxCell>
        <mxCell id="Lr293_eHCsVt5JCDT1sO-24" style="edgeStyle=orthogonalEdgeStyle;rounded=0;orthogonalLoop=1;jettySize=auto;html=1;" edge="1" parent="1">
          <mxGeometry relative="1" as="geometry">
            <mxPoint x="-200" y="810" as="targetPoint" />
            <mxPoint x="-160" y="810" as="sourcePoint" />
          </mxGeometry>
        </mxCell>
        <mxCell id="Lr293_eHCsVt5JCDT1sO-25" style="edgeStyle=orthogonalEdgeStyle;rounded=0;orthogonalLoop=1;jettySize=auto;html=1;" edge="1" parent="1" source="Lr293_eHCsVt5JCDT1sO-26" target="Lr293_eHCsVt5JCDT1sO-28">
          <mxGeometry relative="1" as="geometry">
            <mxPoint x="10" y="490" as="targetPoint" />
          </mxGeometry>
        </mxCell>
        <mxCell id="Lr293_eHCsVt5JCDT1sO-26" value="Nhap cac ki tu cho day" style="rounded=0;whiteSpace=wrap;html=1;" vertex="1" parent="1">
          <mxGeometry x="70" y="460" width="150" height="60" as="geometry" />
        </mxCell>
        <mxCell id="Lr293_eHCsVt5JCDT1sO-27" style="edgeStyle=orthogonalEdgeStyle;rounded=0;orthogonalLoop=1;jettySize=auto;html=1;entryX=0;entryY=0.5;entryDx=0;entryDy=0;" edge="1" parent="1" source="Lr293_eHCsVt5JCDT1sO-28" target="Lr293_eHCsVt5JCDT1sO-71">
          <mxGeometry relative="1" as="geometry">
            <Array as="points">
              <mxPoint x="-730" y="490" />
              <mxPoint x="-730" y="1600" />
            </Array>
          </mxGeometry>
        </mxCell>
        <mxCell id="Lr293_eHCsVt5JCDT1sO-28" value="In chuoi" style="shape=parallelogram;perimeter=parallelogramPerimeter;whiteSpace=wrap;html=1;fixedSize=1;" vertex="1" parent="1">
          <mxGeometry x="-100" y="460" width="120" height="60" as="geometry" />
        </mxCell>
        <mxCell id="Lr293_eHCsVt5JCDT1sO-29" style="edgeStyle=orthogonalEdgeStyle;rounded=0;orthogonalLoop=1;jettySize=auto;html=1;" edge="1" parent="1" source="Lr293_eHCsVt5JCDT1sO-30">
          <mxGeometry relative="1" as="geometry">
            <mxPoint x="-730" y="650" as="targetPoint" />
          </mxGeometry>
        </mxCell>
        <mxCell id="Lr293_eHCsVt5JCDT1sO-30" value="in ra nội dung chuỗi" style="shape=parallelogram;perimeter=parallelogramPerimeter;whiteSpace=wrap;html=1;fixedSize=1;" vertex="1" parent="1">
          <mxGeometry x="20" y="620" width="220" height="60" as="geometry" />
        </mxCell>
        <mxCell id="Lr293_eHCsVt5JCDT1sO-31" style="edgeStyle=orthogonalEdgeStyle;rounded=0;orthogonalLoop=1;jettySize=auto;html=1;" edge="1" parent="1" source="Lr293_eHCsVt5JCDT1sO-35">
          <mxGeometry relative="1" as="geometry">
            <mxPoint x="250" y="980" as="targetPoint" />
          </mxGeometry>
        </mxCell>
        <mxCell id="Lr293_eHCsVt5JCDT1sO-32" value="True" style="edgeLabel;html=1;align=center;verticalAlign=middle;resizable=0;points=[];" vertex="1" connectable="0" parent="Lr293_eHCsVt5JCDT1sO-31">
          <mxGeometry x="-0.0069" y="2" relative="1" as="geometry">
            <mxPoint x="2" as="offset" />
          </mxGeometry>
        </mxCell>
        <mxCell id="Lr293_eHCsVt5JCDT1sO-33" style="edgeStyle=orthogonalEdgeStyle;rounded=0;orthogonalLoop=1;jettySize=auto;html=1;" edge="1" parent="1" source="Lr293_eHCsVt5JCDT1sO-35">
          <mxGeometry relative="1" as="geometry">
            <mxPoint x="400" y="1110" as="targetPoint" />
          </mxGeometry>
        </mxCell>
        <mxCell id="Lr293_eHCsVt5JCDT1sO-34" value="False" style="edgeLabel;html=1;align=center;verticalAlign=middle;resizable=0;points=[];" vertex="1" connectable="0" parent="Lr293_eHCsVt5JCDT1sO-33">
          <mxGeometry x="-0.001" relative="1" as="geometry">
            <mxPoint as="offset" />
          </mxGeometry>
        </mxCell>
        <mxCell id="Lr293_eHCsVt5JCDT1sO-35" value="choice==4" style="rhombus;whiteSpace=wrap;html=1;" vertex="1" parent="1">
          <mxGeometry x="337.5" y="940" width="122.5" height="80" as="geometry" />
        </mxCell>
        <mxCell id="Lr293_eHCsVt5JCDT1sO-36" style="edgeStyle=orthogonalEdgeStyle;rounded=0;orthogonalLoop=1;jettySize=auto;html=1;" edge="1" parent="1">
          <mxGeometry relative="1" as="geometry">
            <mxPoint x="-240" y="980" as="targetPoint" />
            <mxPoint x="-200" y="980" as="sourcePoint" />
          </mxGeometry>
        </mxCell>
        <mxCell id="Lr293_eHCsVt5JCDT1sO-37" style="edgeStyle=orthogonalEdgeStyle;rounded=0;orthogonalLoop=1;jettySize=auto;html=1;" edge="1" parent="1" source="Lr293_eHCsVt5JCDT1sO-38">
          <mxGeometry relative="1" as="geometry">
            <mxPoint x="-30" y="980" as="targetPoint" />
          </mxGeometry>
        </mxCell>
        <mxCell id="Lr293_eHCsVt5JCDT1sO-38" value="khai bao&amp;nbsp;replaceCharacter" style="shape=parallelogram;perimeter=parallelogramPerimeter;whiteSpace=wrap;html=1;fixedSize=1;" vertex="1" parent="1">
          <mxGeometry x="20" y="950" width="240" height="60" as="geometry" />
        </mxCell>
        <mxCell id="Lr293_eHCsVt5JCDT1sO-39" style="edgeStyle=orthogonalEdgeStyle;rounded=0;orthogonalLoop=1;jettySize=auto;html=1;" edge="1" parent="1">
          <mxGeometry relative="1" as="geometry">
            <mxPoint x="-440" y="810" as="targetPoint" />
            <mxPoint x="-380" y="810" as="sourcePoint" />
          </mxGeometry>
        </mxCell>
        <mxCell id="Lr293_eHCsVt5JCDT1sO-40" style="edgeStyle=orthogonalEdgeStyle;rounded=0;orthogonalLoop=1;jettySize=auto;html=1;" edge="1" parent="1">
          <mxGeometry relative="1" as="geometry">
            <mxPoint x="-480" y="980" as="targetPoint" />
            <mxPoint x="-410" y="980" as="sourcePoint" />
          </mxGeometry>
        </mxCell>
        <mxCell id="Lr293_eHCsVt5JCDT1sO-41" style="edgeStyle=orthogonalEdgeStyle;rounded=0;orthogonalLoop=1;jettySize=auto;html=1;" edge="1" parent="1" source="Lr293_eHCsVt5JCDT1sO-45">
          <mxGeometry relative="1" as="geometry">
            <mxPoint x="398.7550000000001" y="1280" as="targetPoint" />
          </mxGeometry>
        </mxCell>
        <mxCell id="Lr293_eHCsVt5JCDT1sO-42" value="False" style="edgeLabel;html=1;align=center;verticalAlign=middle;resizable=0;points=[];" vertex="1" connectable="0" parent="Lr293_eHCsVt5JCDT1sO-41">
          <mxGeometry x="0.0738" y="-2" relative="1" as="geometry">
            <mxPoint as="offset" />
          </mxGeometry>
        </mxCell>
        <mxCell id="Lr293_eHCsVt5JCDT1sO-43" style="edgeStyle=orthogonalEdgeStyle;rounded=0;orthogonalLoop=1;jettySize=auto;html=1;" edge="1" parent="1" source="Lr293_eHCsVt5JCDT1sO-45">
          <mxGeometry relative="1" as="geometry">
            <mxPoint x="260" y="1155" as="targetPoint" />
          </mxGeometry>
        </mxCell>
        <mxCell id="Lr293_eHCsVt5JCDT1sO-44" value="True" style="edgeLabel;html=1;align=center;verticalAlign=middle;resizable=0;points=[];" vertex="1" connectable="0" parent="Lr293_eHCsVt5JCDT1sO-43">
          <mxGeometry x="-0.02" y="-1" relative="1" as="geometry">
            <mxPoint y="-1" as="offset" />
          </mxGeometry>
        </mxCell>
        <mxCell id="Lr293_eHCsVt5JCDT1sO-45" value="choice==5" style="rhombus;whiteSpace=wrap;html=1;" vertex="1" parent="1">
          <mxGeometry x="338.13" y="1110" width="121.25" height="90" as="geometry" />
        </mxCell>
        <mxCell id="Lr293_eHCsVt5JCDT1sO-46" style="edgeStyle=orthogonalEdgeStyle;rounded=0;orthogonalLoop=1;jettySize=auto;html=1;" edge="1" parent="1" source="Lr293_eHCsVt5JCDT1sO-47">
          <mxGeometry relative="1" as="geometry">
            <mxPoint x="-10" y="1155" as="targetPoint" />
          </mxGeometry>
        </mxCell>
        <mxCell id="Lr293_eHCsVt5JCDT1sO-47" value="Khai bao&amp;nbsp;removeCharacter&lt;br&gt;j" style="shape=parallelogram;perimeter=parallelogramPerimeter;whiteSpace=wrap;html=1;fixedSize=1;" vertex="1" parent="1">
          <mxGeometry x="40" y="1125" width="230" height="60" as="geometry" />
        </mxCell>
        <mxCell id="Lr293_eHCsVt5JCDT1sO-48" style="edgeStyle=orthogonalEdgeStyle;rounded=0;orthogonalLoop=1;jettySize=auto;html=1;" edge="1" parent="1" source="Lr293_eHCsVt5JCDT1sO-52">
          <mxGeometry relative="1" as="geometry">
            <mxPoint x="398.75" y="1450" as="targetPoint" />
          </mxGeometry>
        </mxCell>
        <mxCell id="Lr293_eHCsVt5JCDT1sO-49" value="False" style="edgeLabel;html=1;align=center;verticalAlign=middle;resizable=0;points=[];" vertex="1" connectable="0" parent="Lr293_eHCsVt5JCDT1sO-48">
          <mxGeometry x="0.0866" y="2" relative="1" as="geometry">
            <mxPoint as="offset" />
          </mxGeometry>
        </mxCell>
        <mxCell id="Lr293_eHCsVt5JCDT1sO-50" style="edgeStyle=orthogonalEdgeStyle;rounded=0;orthogonalLoop=1;jettySize=auto;html=1;" edge="1" parent="1" source="Lr293_eHCsVt5JCDT1sO-52">
          <mxGeometry relative="1" as="geometry">
            <mxPoint x="260" y="1320" as="targetPoint" />
          </mxGeometry>
        </mxCell>
        <mxCell id="Lr293_eHCsVt5JCDT1sO-51" value="True" style="edgeLabel;html=1;align=center;verticalAlign=middle;resizable=0;points=[];" vertex="1" connectable="0" parent="Lr293_eHCsVt5JCDT1sO-50">
          <mxGeometry x="-0.0556" y="-1" relative="1" as="geometry">
            <mxPoint x="1" as="offset" />
          </mxGeometry>
        </mxCell>
        <mxCell id="Lr293_eHCsVt5JCDT1sO-52" value="choice==6" style="rhombus;whiteSpace=wrap;html=1;" vertex="1" parent="1">
          <mxGeometry x="337.5" y="1280" width="122.5" height="80" as="geometry" />
        </mxCell>
        <mxCell id="Lr293_eHCsVt5JCDT1sO-53" style="edgeStyle=orthogonalEdgeStyle;rounded=0;orthogonalLoop=1;jettySize=auto;html=1;" edge="1" parent="1" source="Lr293_eHCsVt5JCDT1sO-54">
          <mxGeometry relative="1" as="geometry">
            <mxPoint x="-730" y="1320" as="targetPoint" />
          </mxGeometry>
        </mxCell>
        <mxCell id="Lr293_eHCsVt5JCDT1sO-54" value="Kết thuc chuong trinh" style="shape=parallelogram;perimeter=parallelogramPerimeter;whiteSpace=wrap;html=1;fixedSize=1;" vertex="1" parent="1">
          <mxGeometry x="40" y="1290" width="230" height="60" as="geometry" />
        </mxCell>
        <mxCell id="Lr293_eHCsVt5JCDT1sO-55" value="character[]==x" style="rhombus;whiteSpace=wrap;html=1;" vertex="1" parent="1">
          <mxGeometry x="-160" y="770" width="140" height="80" as="geometry" />
        </mxCell>
        <mxCell id="Lr293_eHCsVt5JCDT1sO-56" value="count++" style="rounded=0;whiteSpace=wrap;html=1;" vertex="1" parent="1">
          <mxGeometry x="-380" y="780" width="180" height="60" as="geometry" />
        </mxCell>
        <mxCell id="Lr293_eHCsVt5JCDT1sO-57" style="edgeStyle=orthogonalEdgeStyle;rounded=0;orthogonalLoop=1;jettySize=auto;html=1;" edge="1" parent="1" source="Lr293_eHCsVt5JCDT1sO-58">
          <mxGeometry relative="1" as="geometry">
            <mxPoint x="-730" y="810" as="targetPoint" />
          </mxGeometry>
        </mxCell>
        <mxCell id="Lr293_eHCsVt5JCDT1sO-58" value="số phần tử giống phần tử nhập là count" style="shape=parallelogram;perimeter=parallelogramPerimeter;whiteSpace=wrap;html=1;fixedSize=1;" vertex="1" parent="1">
          <mxGeometry x="-670" y="780" width="240" height="60" as="geometry" />
        </mxCell>
        <mxCell id="Lr293_eHCsVt5JCDT1sO-59" value="character[]==m" style="rhombus;whiteSpace=wrap;html=1;" vertex="1" parent="1">
          <mxGeometry x="-200" y="940" width="170" height="80" as="geometry" />
        </mxCell>
        <mxCell id="Lr293_eHCsVt5JCDT1sO-60" value="character[]=n" style="rounded=0;whiteSpace=wrap;html=1;" vertex="1" parent="1">
          <mxGeometry x="-420" y="950" width="180" height="60" as="geometry" />
        </mxCell>
        <mxCell id="Lr293_eHCsVt5JCDT1sO-61" style="edgeStyle=orthogonalEdgeStyle;rounded=0;orthogonalLoop=1;jettySize=auto;html=1;" edge="1" parent="1" source="Lr293_eHCsVt5JCDT1sO-62">
          <mxGeometry relative="1" as="geometry">
            <mxPoint x="-730" y="980" as="targetPoint" />
          </mxGeometry>
        </mxCell>
        <mxCell id="Lr293_eHCsVt5JCDT1sO-62" value="in ra chuỗi mới" style="shape=parallelogram;perimeter=parallelogramPerimeter;whiteSpace=wrap;html=1;fixedSize=1;" vertex="1" parent="1">
          <mxGeometry x="-650" y="950" width="180" height="60" as="geometry" />
        </mxCell>
        <mxCell id="Lr293_eHCsVt5JCDT1sO-63" style="edgeStyle=orthogonalEdgeStyle;rounded=0;orthogonalLoop=1;jettySize=auto;html=1;" edge="1" parent="1" source="Lr293_eHCsVt5JCDT1sO-64">
          <mxGeometry relative="1" as="geometry">
            <mxPoint x="-220" y="1155" as="targetPoint" />
          </mxGeometry>
        </mxCell>
        <mxCell id="Lr293_eHCsVt5JCDT1sO-64" value="character[] != x" style="rhombus;whiteSpace=wrap;html=1;" vertex="1" parent="1">
          <mxGeometry x="-170" y="1115" width="160" height="80" as="geometry" />
        </mxCell>
        <mxCell id="Lr293_eHCsVt5JCDT1sO-65" style="edgeStyle=orthogonalEdgeStyle;rounded=0;orthogonalLoop=1;jettySize=auto;html=1;" edge="1" parent="1" source="Lr293_eHCsVt5JCDT1sO-66" target="Lr293_eHCsVt5JCDT1sO-68">
          <mxGeometry relative="1" as="geometry">
            <mxPoint x="-460" y="1155" as="targetPoint" />
          </mxGeometry>
        </mxCell>
        <mxCell id="Lr293_eHCsVt5JCDT1sO-66" value="character[i] = character[j]" style="rounded=0;whiteSpace=wrap;html=1;" vertex="1" parent="1">
          <mxGeometry x="-390" y="1125" width="170" height="60" as="geometry" />
        </mxCell>
        <mxCell id="Lr293_eHCsVt5JCDT1sO-67" style="edgeStyle=orthogonalEdgeStyle;rounded=0;orthogonalLoop=1;jettySize=auto;html=1;" edge="1" parent="1" source="Lr293_eHCsVt5JCDT1sO-68">
          <mxGeometry relative="1" as="geometry">
            <mxPoint x="-730" y="1155" as="targetPoint" />
          </mxGeometry>
        </mxCell>
        <mxCell id="Lr293_eHCsVt5JCDT1sO-68" value="In ra chuỗi mới" style="shape=parallelogram;perimeter=parallelogramPerimeter;whiteSpace=wrap;html=1;fixedSize=1;" vertex="1" parent="1">
          <mxGeometry x="-610" y="1125" width="160" height="60" as="geometry" />
        </mxCell>
        <mxCell id="Lr293_eHCsVt5JCDT1sO-69" style="edgeStyle=orthogonalEdgeStyle;rounded=0;orthogonalLoop=1;jettySize=auto;html=1;" edge="1" parent="1" source="Lr293_eHCsVt5JCDT1sO-70">
          <mxGeometry relative="1" as="geometry">
            <mxPoint x="400" y="1560" as="targetPoint" />
          </mxGeometry>
        </mxCell>
        <mxCell id="Lr293_eHCsVt5JCDT1sO-70" value="Không hợp lệ" style="shape=parallelogram;perimeter=parallelogramPerimeter;whiteSpace=wrap;html=1;fixedSize=1;" vertex="1" parent="1">
          <mxGeometry x="301.26" y="1450" width="195" height="60" as="geometry" />
        </mxCell>
        <mxCell id="Lr293_eHCsVt5JCDT1sO-71" value="End" style="ellipse;whiteSpace=wrap;html=1;" vertex="1" parent="1">
          <mxGeometry x="340" y="1560" width="120" height="80" as="geometry" />
        </mxCell>
      </root>
    </mxGraphModel>
  </diagram>
  <diagram id="xiR17YvMiEeqW_CyAxwr" name="Page-3">
    <mxGraphModel dx="1173" dy="772" grid="1" gridSize="10" guides="1" tooltips="1" connect="1" arrows="1" fold="1" page="1" pageScale="1" pageWidth="850" pageHeight="1100" math="0" shadow="0">
      <root>
        <mxCell id="0" />
        <mxCell id="1" parent="0" />
        <mxCell id="_dLwdsA1nn37Svjk8GGG-1" style="edgeStyle=orthogonalEdgeStyle;rounded=0;orthogonalLoop=1;jettySize=auto;html=1;entryX=0.5;entryY=0;entryDx=0;entryDy=0;" edge="1" parent="1" source="_dLwdsA1nn37Svjk8GGG-2" target="_dLwdsA1nn37Svjk8GGG-4">
          <mxGeometry relative="1" as="geometry" />
        </mxCell>
        <mxCell id="_dLwdsA1nn37Svjk8GGG-2" value="Start" style="ellipse;whiteSpace=wrap;html=1;" vertex="1" parent="1">
          <mxGeometry x="280" width="120" height="80" as="geometry" />
        </mxCell>
        <mxCell id="_dLwdsA1nn37Svjk8GGG-3" style="edgeStyle=orthogonalEdgeStyle;rounded=0;orthogonalLoop=1;jettySize=auto;html=1;" edge="1" parent="1" source="_dLwdsA1nn37Svjk8GGG-4" target="_dLwdsA1nn37Svjk8GGG-6">
          <mxGeometry relative="1" as="geometry" />
        </mxCell>
        <mxCell id="_dLwdsA1nn37Svjk8GGG-4" value="i, j, cout, len,count[100] = {0}" style="rounded=0;whiteSpace=wrap;html=1;" vertex="1" parent="1">
          <mxGeometry x="280" y="110" width="120" height="60" as="geometry" />
        </mxCell>
        <mxCell id="_dLwdsA1nn37Svjk8GGG-5" style="edgeStyle=orthogonalEdgeStyle;rounded=0;orthogonalLoop=1;jettySize=auto;html=1;entryX=0.5;entryY=0;entryDx=0;entryDy=0;" edge="1" parent="1" source="_dLwdsA1nn37Svjk8GGG-6" target="_dLwdsA1nn37Svjk8GGG-8">
          <mxGeometry relative="1" as="geometry" />
        </mxCell>
        <mxCell id="_dLwdsA1nn37Svjk8GGG-6" value="len = strlen(str)" style="rounded=0;whiteSpace=wrap;html=1;" vertex="1" parent="1">
          <mxGeometry x="280" y="200" width="120" height="60" as="geometry" />
        </mxCell>
        <mxCell id="_dLwdsA1nn37Svjk8GGG-7" style="edgeStyle=orthogonalEdgeStyle;rounded=0;orthogonalLoop=1;jettySize=auto;html=1;entryX=0.5;entryY=0;entryDx=0;entryDy=0;" edge="1" parent="1" source="_dLwdsA1nn37Svjk8GGG-8" target="_dLwdsA1nn37Svjk8GGG-10">
          <mxGeometry relative="1" as="geometry" />
        </mxCell>
        <mxCell id="_dLwdsA1nn37Svjk8GGG-8" value="str" style="rounded=1;whiteSpace=wrap;html=1;" vertex="1" parent="1">
          <mxGeometry x="280" y="290" width="120" height="60" as="geometry" />
        </mxCell>
        <mxCell id="_dLwdsA1nn37Svjk8GGG-9" style="edgeStyle=orthogonalEdgeStyle;rounded=0;orthogonalLoop=1;jettySize=auto;html=1;entryX=0;entryY=0.5;entryDx=0;entryDy=0;" edge="1" parent="1" source="_dLwdsA1nn37Svjk8GGG-10" target="_dLwdsA1nn37Svjk8GGG-13">
          <mxGeometry relative="1" as="geometry" />
        </mxCell>
        <mxCell id="_dLwdsA1nn37Svjk8GGG-10" value="i=0" style="rounded=0;whiteSpace=wrap;html=1;" vertex="1" parent="1">
          <mxGeometry x="280" y="380" width="120" height="60" as="geometry" />
        </mxCell>
        <mxCell id="_dLwdsA1nn37Svjk8GGG-11" value="True" style="edgeStyle=orthogonalEdgeStyle;rounded=0;orthogonalLoop=1;jettySize=auto;html=1;entryX=0;entryY=0.5;entryDx=0;entryDy=0;" edge="1" parent="1" source="_dLwdsA1nn37Svjk8GGG-13" target="_dLwdsA1nn37Svjk8GGG-18">
          <mxGeometry relative="1" as="geometry">
            <Array as="points">
              <mxPoint x="590" y="410" />
              <mxPoint x="590" y="410" />
            </Array>
          </mxGeometry>
        </mxCell>
        <mxCell id="_dLwdsA1nn37Svjk8GGG-12" style="edgeStyle=orthogonalEdgeStyle;rounded=0;orthogonalLoop=1;jettySize=auto;html=1;entryX=1;entryY=0.5;entryDx=0;entryDy=0;" edge="1" parent="1" source="_dLwdsA1nn37Svjk8GGG-13" target="_dLwdsA1nn37Svjk8GGG-36">
          <mxGeometry relative="1" as="geometry">
            <Array as="points">
              <mxPoint x="490" y="560" />
              <mxPoint x="440" y="560" />
            </Array>
          </mxGeometry>
        </mxCell>
        <mxCell id="_dLwdsA1nn37Svjk8GGG-13" value="i&amp;lt;len" style="rhombus;whiteSpace=wrap;html=1;" vertex="1" parent="1">
          <mxGeometry x="470" y="370" width="80" height="80" as="geometry" />
        </mxCell>
        <mxCell id="_dLwdsA1nn37Svjk8GGG-14" style="edgeStyle=orthogonalEdgeStyle;rounded=0;orthogonalLoop=1;jettySize=auto;html=1;" edge="1" parent="1" source="_dLwdsA1nn37Svjk8GGG-15" target="_dLwdsA1nn37Svjk8GGG-13">
          <mxGeometry relative="1" as="geometry">
            <Array as="points">
              <mxPoint x="510" y="300" />
            </Array>
          </mxGeometry>
        </mxCell>
        <mxCell id="_dLwdsA1nn37Svjk8GGG-15" value="i++" style="rounded=0;whiteSpace=wrap;html=1;" vertex="1" parent="1">
          <mxGeometry x="530" y="280" width="120" height="60" as="geometry" />
        </mxCell>
        <mxCell id="_dLwdsA1nn37Svjk8GGG-16" style="edgeStyle=orthogonalEdgeStyle;rounded=0;orthogonalLoop=1;jettySize=auto;html=1;entryX=0;entryY=0.5;entryDx=0;entryDy=0;" edge="1" parent="1" source="_dLwdsA1nn37Svjk8GGG-18" target="_dLwdsA1nn37Svjk8GGG-20">
          <mxGeometry relative="1" as="geometry" />
        </mxCell>
        <mxCell id="_dLwdsA1nn37Svjk8GGG-17" value="false" style="edgeStyle=orthogonalEdgeStyle;rounded=0;orthogonalLoop=1;jettySize=auto;html=1;entryX=1;entryY=0.5;entryDx=0;entryDy=0;" edge="1" parent="1" source="_dLwdsA1nn37Svjk8GGG-18" target="_dLwdsA1nn37Svjk8GGG-15">
          <mxGeometry relative="1" as="geometry" />
        </mxCell>
        <mxCell id="_dLwdsA1nn37Svjk8GGG-18" value="str[i]==&#39; &#39;" style="rhombus;whiteSpace=wrap;html=1;" vertex="1" parent="1">
          <mxGeometry x="630" y="370" width="80" height="80" as="geometry" />
        </mxCell>
        <mxCell id="_dLwdsA1nn37Svjk8GGG-19" style="edgeStyle=orthogonalEdgeStyle;rounded=0;orthogonalLoop=1;jettySize=auto;html=1;entryX=0;entryY=0.5;entryDx=0;entryDy=0;" edge="1" parent="1" source="_dLwdsA1nn37Svjk8GGG-20" target="_dLwdsA1nn37Svjk8GGG-22">
          <mxGeometry relative="1" as="geometry" />
        </mxCell>
        <mxCell id="_dLwdsA1nn37Svjk8GGG-20" value="cout=1" style="rounded=0;whiteSpace=wrap;html=1;" vertex="1" parent="1">
          <mxGeometry x="770" y="380" width="120" height="60" as="geometry" />
        </mxCell>
        <mxCell id="_dLwdsA1nn37Svjk8GGG-21" style="edgeStyle=orthogonalEdgeStyle;rounded=0;orthogonalLoop=1;jettySize=auto;html=1;entryX=0;entryY=0.5;entryDx=0;entryDy=0;" edge="1" parent="1" source="_dLwdsA1nn37Svjk8GGG-22" target="_dLwdsA1nn37Svjk8GGG-25">
          <mxGeometry relative="1" as="geometry" />
        </mxCell>
        <mxCell id="_dLwdsA1nn37Svjk8GGG-22" value="j=i+1" style="rounded=0;whiteSpace=wrap;html=1;" vertex="1" parent="1">
          <mxGeometry x="950" y="380" width="120" height="60" as="geometry" />
        </mxCell>
        <mxCell id="_dLwdsA1nn37Svjk8GGG-23" value="true" style="edgeStyle=orthogonalEdgeStyle;rounded=0;orthogonalLoop=1;jettySize=auto;html=1;entryX=0;entryY=0.5;entryDx=0;entryDy=0;" edge="1" parent="1" source="_dLwdsA1nn37Svjk8GGG-25" target="_dLwdsA1nn37Svjk8GGG-30">
          <mxGeometry relative="1" as="geometry" />
        </mxCell>
        <mxCell id="_dLwdsA1nn37Svjk8GGG-24" value="False" style="edgeStyle=orthogonalEdgeStyle;rounded=0;orthogonalLoop=1;jettySize=auto;html=1;" edge="1" parent="1" source="_dLwdsA1nn37Svjk8GGG-25">
          <mxGeometry relative="1" as="geometry">
            <mxPoint x="1195" y="540" as="targetPoint" />
          </mxGeometry>
        </mxCell>
        <mxCell id="_dLwdsA1nn37Svjk8GGG-25" value="j&amp;lt;len" style="rhombus;whiteSpace=wrap;html=1;" vertex="1" parent="1">
          <mxGeometry x="1140" y="370" width="110" height="80" as="geometry" />
        </mxCell>
        <mxCell id="_dLwdsA1nn37Svjk8GGG-26" style="edgeStyle=orthogonalEdgeStyle;rounded=0;orthogonalLoop=1;jettySize=auto;html=1;entryX=0.5;entryY=0;entryDx=0;entryDy=0;" edge="1" parent="1" source="_dLwdsA1nn37Svjk8GGG-27" target="_dLwdsA1nn37Svjk8GGG-25">
          <mxGeometry relative="1" as="geometry">
            <Array as="points">
              <mxPoint x="1195" y="290" />
            </Array>
          </mxGeometry>
        </mxCell>
        <mxCell id="_dLwdsA1nn37Svjk8GGG-27" value="j++" style="rounded=0;whiteSpace=wrap;html=1;" vertex="1" parent="1">
          <mxGeometry x="1230" y="260" width="120" height="60" as="geometry" />
        </mxCell>
        <mxCell id="_dLwdsA1nn37Svjk8GGG-28" value="True" style="edgeStyle=orthogonalEdgeStyle;rounded=0;orthogonalLoop=1;jettySize=auto;html=1;entryX=0;entryY=0.5;entryDx=0;entryDy=0;" edge="1" parent="1" source="_dLwdsA1nn37Svjk8GGG-30" target="_dLwdsA1nn37Svjk8GGG-31">
          <mxGeometry relative="1" as="geometry" />
        </mxCell>
        <mxCell id="_dLwdsA1nn37Svjk8GGG-29" style="edgeStyle=orthogonalEdgeStyle;rounded=0;orthogonalLoop=1;jettySize=auto;html=1;entryX=1;entryY=0.5;entryDx=0;entryDy=0;" edge="1" parent="1" source="_dLwdsA1nn37Svjk8GGG-30" target="_dLwdsA1nn37Svjk8GGG-27">
          <mxGeometry relative="1" as="geometry" />
        </mxCell>
        <mxCell id="_dLwdsA1nn37Svjk8GGG-30" value="str[i]==str[j]" style="rhombus;whiteSpace=wrap;html=1;" vertex="1" parent="1">
          <mxGeometry x="1310" y="370" width="170" height="80" as="geometry" />
        </mxCell>
        <mxCell id="_dLwdsA1nn37Svjk8GGG-31" value="cout=1&lt;br&gt;count[j]=1" style="rounded=0;whiteSpace=wrap;html=1;" vertex="1" parent="1">
          <mxGeometry x="1550" y="380" width="160" height="60" as="geometry" />
        </mxCell>
        <mxCell id="_dLwdsA1nn37Svjk8GGG-32" style="edgeStyle=orthogonalEdgeStyle;rounded=0;orthogonalLoop=1;jettySize=auto;html=1;entryX=0;entryY=0.5;entryDx=0;entryDy=0;" edge="1" parent="1" source="_dLwdsA1nn37Svjk8GGG-33" target="_dLwdsA1nn37Svjk8GGG-35">
          <mxGeometry relative="1" as="geometry" />
        </mxCell>
        <mxCell id="_dLwdsA1nn37Svjk8GGG-33" value="count[i]==0" style="rhombus;whiteSpace=wrap;html=1;" vertex="1" parent="1">
          <mxGeometry x="1155" y="540" width="80" height="80" as="geometry" />
        </mxCell>
        <mxCell id="_dLwdsA1nn37Svjk8GGG-34" style="edgeStyle=orthogonalEdgeStyle;rounded=0;orthogonalLoop=1;jettySize=auto;html=1;entryX=1;entryY=1;entryDx=0;entryDy=0;" edge="1" parent="1" source="_dLwdsA1nn37Svjk8GGG-35" target="_dLwdsA1nn37Svjk8GGG-13">
          <mxGeometry relative="1" as="geometry">
            <mxPoint x="630" y="570" as="targetPoint" />
            <Array as="points">
              <mxPoint x="1405" y="650" />
              <mxPoint x="530" y="650" />
            </Array>
          </mxGeometry>
        </mxCell>
        <mxCell id="_dLwdsA1nn37Svjk8GGG-35" value="&quot;%c: %d\n&quot;, str[i], cout" style="rounded=1;whiteSpace=wrap;html=1;" vertex="1" parent="1">
          <mxGeometry x="1310" y="550" width="190" height="60" as="geometry" />
        </mxCell>
        <mxCell id="_dLwdsA1nn37Svjk8GGG-36" value="End" style="ellipse;whiteSpace=wrap;html=1;" vertex="1" parent="1">
          <mxGeometry x="230" y="520" width="120" height="80" as="geometry" />
        </mxCell>
      </root>
    </mxGraphModel>
  </diagram>
  <diagram id="H4Juqj8598UhhGJVxWgh" name="Page-4">
    <mxGraphModel dx="1173" dy="772" grid="1" gridSize="10" guides="1" tooltips="1" connect="1" arrows="1" fold="1" page="1" pageScale="1" pageWidth="850" pageHeight="1100" math="0" shadow="0">
      <root>
        <mxCell id="0" />
        <mxCell id="1" parent="0" />
        <mxCell id="GDwPOcA8UvXXaM0oB1ve-1" value="Start" style="ellipse;whiteSpace=wrap;html=1;" vertex="1" parent="1">
          <mxGeometry x="70" y="70" width="120" height="80" as="geometry" />
        </mxCell>
      </root>
    </mxGraphModel>
  </diagram>
</mxfile>
